External Loads File
version=1
nRows=77
nColumns=13
Range=5.000000e-03-10 seconds
endheader
time 	forceRightX 	forceRightY 	forceRightZ 	pointRightX 	pointRightY 	pointRightZ 	forceLeftX 	forceLeftY 	forceLeftZ 	pointLeftX 	pointLeftY 	pointLeftZ 		
2.505000 65.399380 -171.982415 -0.000000 0.142458 0.157100 -0.101974 -136.552469 394.944974 -0.000000 0.187557 0.486252 -0.344804
2.510000 64.314808 -178.507728 -0.000000 0.139461 0.157958 -0.102091 -143.032424 406.138598 -0.000000 0.190280 0.485266 -0.344863
2.515000 63.158498 -184.464415 -0.000000 0.136472 0.158879 -0.102109 -149.344597 415.933111 -0.000000 0.193073 0.484089 -0.344913
2.520000 61.958406 -189.866082 -0.000000 0.133523 0.159990 -0.102269 -155.572924 424.384331 -0.000000 0.195915 0.482922 -0.344969
2.525000 60.695942 -194.747426 -0.000000 0.130441 0.161288 -0.102392 -161.666306 431.682959 -0.000000 0.198677 0.481754 -0.345053
2.530000 59.283605 -199.134566 -0.000000 0.127244 0.162583 -0.102591 -167.408605 438.160175 -0.000000 0.201619 0.480502 -0.344994
2.535000 58.063697 -202.884370 -0.000000 0.124211 0.163920 -0.102603 -173.535132 443.835176 -0.000000 0.204488 0.479359 -0.345040
2.540000 56.770179 -206.002528 -0.000000 0.121023 0.165259 -0.102553 -179.458388 449.243356 -0.000000 0.207355 0.477931 -0.345163
2.545000 55.528280 -208.363986 -0.000000 0.117871 0.166678 -0.102514 -185.437637 454.560098 -0.000000 0.210273 0.476478 -0.345098
2.550000 54.460106 -209.862611 -0.000000 0.114798 0.168108 -0.102490 -191.674236 459.910232 -0.000000 0.213051 0.474852 -0.345296
2.555000 53.353314 -210.525246 -0.000000 0.111641 0.169666 -0.102497 -197.605850 465.670155 -0.000000 0.215968 0.473240 -0.345295
2.560000 52.339762 -210.357075 -0.000000 0.108458 0.171358 -0.102484 -203.421374 471.850836 -0.000000 0.218812 0.471478 -0.345409
2.565000 51.626785 -209.418221 -0.000000 0.105426 0.173039 -0.102418 -209.516820 478.315935 -0.000000 0.221560 0.469669 -0.345285
2.570000 50.964998 -207.929887 -0.000000 0.102297 0.174791 -0.102458 -215.318592 485.322496 -0.000000 0.224341 0.467823 -0.345534
2.575000 50.518839 -206.023744 -0.000000 0.099236 0.176712 -0.102498 -221.280198 492.685229 -0.000000 0.226984 0.465876 -0.345360
2.580000 50.109492 -203.898869 -0.000000 0.096203 0.178676 -0.102388 -227.129060 500.551561 -0.000000 0.229709 0.463825 -0.345449
2.585000 49.761782 -201.665642 -0.000000 0.093161 0.180631 -0.102383 -233.085542 508.815274 -0.000000 0.232377 0.461605 -0.345580
2.590000 49.393140 -199.406291 -0.000000 0.090147 0.182742 -0.102373 -239.069745 517.422367 -0.000000 0.235075 0.459382 -0.345536
2.595000 48.914015 -197.149673 -0.000000 0.087114 0.184943 -0.102394 -244.903232 526.297364 -0.000000 0.237715 0.456904 -0.345469
2.600000 48.382499 -194.849474 -0.000000 0.084145 0.187298 -0.102359 -250.693064 535.203321 -0.000000 0.240379 0.454472 -0.345403
2.605000 47.881402 -192.439067 -0.000000 0.081157 0.189584 -0.102186 -256.531007 543.895509 -0.000000 0.242990 0.452065 -0.345430
2.610000 47.262364 -189.920238 -0.000000 0.078154 0.192157 -0.102214 -261.815434 552.464281 -0.000000 0.245544 0.449460 -0.345673
2.615000 46.910774 -187.184219 -0.000000 0.075306 0.194527 -0.102221 -267.490608 560.307305 -0.000000 0.248082 0.446949 -0.345652
2.620000 46.502338 -184.316222 -0.000000 0.072411 0.197187 -0.102176 -272.441299 567.860107 -0.000000 0.250597 0.444231 -0.345685
2.625000 46.298804 -181.266253 -0.000000 0.069571 0.199878 -0.102166 -277.309139 574.793778 -0.000000 0.253095 0.441448 -0.345689
2.630000 46.370699 -178.040076 -0.000000 0.066800 0.202565 -0.102146 -282.266202 581.068045 -0.000000 0.255566 0.438621 -0.345726
2.635000 46.666031 -174.677140 -0.000000 0.063978 0.205433 -0.102134 -287.150098 586.843336 -0.000000 0.257871 0.435761 -0.345819
2.640000 47.105154 -171.220620 -0.000000 0.061256 0.208399 -0.102121 -291.690299 592.328573 -0.000000 0.260267 0.432760 -0.345894
2.645000 47.804473 -167.650039 -0.000000 0.058566 0.211284 -0.102076 -296.300025 597.361266 -0.000000 0.262562 0.429693 -0.345814
2.650000 48.611268 -164.007035 -0.000000 0.055937 0.214370 -0.101995 -300.497525 602.194880 -0.000000 0.264886 0.426633 -0.345932
2.655000 49.533262 -160.284226 -0.000000 0.053358 0.217487 -0.101968 -304.427456 606.782266 -0.000000 0.267093 0.423340 -0.346042
2.660000 50.512950 -156.501135 -0.000000 0.050784 0.220696 -0.101899 -308.180959 611.129169 -0.000000 0.269318 0.420029 -0.346141
2.665000 51.498645 -152.687614 -0.000000 0.048308 0.223984 -0.101916 -312.086356 615.138228 -0.000000 0.271519 0.416679 -0.346198
2.670000 52.314433 -148.912322 -0.000000 0.045893 0.227375 -0.101907 -315.955597 618.962588 -0.000000 0.273704 0.413215 -0.346377
2.675000 53.001420 -145.152649 -0.000000 0.043620 0.230786 -0.101940 -320.199828 622.425509 -0.000000 0.275804 0.409741 -0.346391
2.680000 53.382525 -141.460570 -0.000000 0.041419 0.234375 -0.101912 -324.068646 625.940723 -0.000000 0.277947 0.406223 -0.346503
2.685000 53.519380 -137.826042 -0.000000 0.039308 0.237927 -0.101931 -327.758129 629.443542 -0.000000 0.280027 0.402560 -0.346480
2.690000 53.399212 -134.297317 -0.000000 0.037281 0.241578 -0.101927 -331.156677 632.997427 -0.000000 0.282060 0.398925 -0.346562
2.695000 52.991884 -130.953589 -0.000000 0.035345 0.245293 -0.101963 -334.028701 636.685148 -0.000000 0.284037 0.395192 -0.346541
2.700000 52.307396 -127.871220 -0.000000 0.033527 0.249111 -0.101955 -336.247244 640.526198 -0.000000 0.286022 0.391394 -0.346616
2.705000 51.391201 -125.113297 -0.000000 0.031800 0.253023 -0.102045 -337.837760 644.492828 -0.000000 0.287968 0.387509 -0.346593
2.710000 50.356608 -122.692497 -0.000000 0.030125 0.256874 -0.102093 -339.287963 648.356873 -0.000000 0.289806 0.383589 -0.346579
2.715000 49.224214 -120.607257 -0.000000 0.028582 0.260800 -0.102084 -340.734589 652.114972 -0.000000 0.291560 0.379743 -0.346566
2.720000 47.881436 -118.849223 -0.000000 0.027139 0.264873 -0.102150 -341.551763 656.189619 -0.000000 0.293289 0.375690 -0.346575
2.725000 46.489815 -117.266820 -0.000000 0.025758 0.268966 -0.102203 -342.485999 660.288853 -0.000000 0.294983 0.371630 -0.346625
2.730000 45.094651 -115.767507 -0.000000 0.024483 0.273130 -0.102199 -343.567030 664.478776 -0.000000 0.296577 0.367546 -0.346744
2.735000 43.734969 -114.288381 -0.000000 0.023273 0.277357 -0.102236 -344.638079 668.901198 -0.000000 0.298122 0.363382 -0.346698
2.740000 42.540773 -112.751841 -0.000000 0.022245 0.281657 -0.102276 -345.891741 673.495774 -0.000000 0.299640 0.359242 -0.346643
2.745000 41.511287 -111.137999 -0.000000 0.021218 0.285993 -0.102263 -346.790955 678.545405 -0.000000 0.301045 0.354907 -0.346591
2.750000 40.808192 -109.359810 -0.000000 0.020352 0.290345 -0.102189 -348.199905 683.582189 -0.000000 0.302310 0.350735 -0.346621
2.755000 40.204534 -107.467595 -0.000000 0.019504 0.294741 -0.102185 -349.089062 689.092643 -0.000000 0.303603 0.346341 -0.346503
2.760000 39.738469 -105.420251 -0.000000 0.018821 0.299203 -0.102155 -350.307957 694.611055 -0.000000 0.304744 0.342041 -0.346408
2.765000 39.272328 -103.255698 -0.000000 0.018255 0.303633 -0.102104 -351.573479 700.243676 -0.000000 0.305772 0.337618 -0.346396
2.770000 38.746493 -100.984072 -0.000000 0.017777 0.308117 -0.102120 -352.933284 705.906154 -0.000000 0.306787 0.333222 -0.346253
2.775000 38.075185 -98.625982 -0.000000 0.017353 0.312713 -0.102084 -354.049961 711.692003 -0.000000 0.307658 0.328809 -0.346189
2.780000 37.204586 -96.209045 -0.000000 0.017059 0.317345 -0.102088 -354.615009 717.688073 -0.000000 0.308502 0.324222 -0.346182
2.785000 36.208681 -93.745943 -0.000000 0.016929 0.322009 -0.102114 -355.137257 723.610477 -0.000000 0.309162 0.319700 -0.345851
2.790000 35.095478 -91.302134 -0.000000 0.016921 0.326679 -0.102165 -355.593156 729.490823 -0.000000 0.309775 0.315230 -0.345772
2.795000 33.810633 -88.964882 -0.000000 0.017044 0.331395 -0.102220 -355.360599 735.686194 -0.000000 0.310276 0.310599 -0.345771
2.800000 32.466309 -86.727405 -0.000000 0.017317 0.336053 -0.102264 -355.007559 741.975958 -0.000000 0.310628 0.305955 -0.345813
2.805000 31.100447 -84.579238 -0.000000 0.017732 0.340796 -0.102268 -354.402962 748.459303 -0.000000 0.310874 0.301385 -0.345730
2.810000 29.741628 -82.497617 -0.000000 0.018289 0.345554 -0.102262 -353.333597 755.236964 -0.000000 0.311022 0.296725 -0.345702
2.815000 28.449974 -80.448104 -0.000000 0.018923 0.350363 -0.102279 -351.968688 762.183520 -0.000000 0.311197 0.292048 -0.345857
2.820000 27.287065 -78.401368 -0.000000 0.019685 0.355068 -0.102296 -350.618052 769.069224 -0.000000 0.311174 0.287393 -0.346298
2.825000 26.194000 -76.377541 -0.000000 0.020658 0.359849 -0.102276 -348.435749 776.151275 -0.000000 0.310810 0.282710 -0.346331
2.830000 25.257807 -74.360307 -0.000000 0.021626 0.364583 -0.102339 -345.896396 783.022457 -0.000000 0.310446 0.278006 -0.346269
2.835000 24.470123 -72.378644 -0.000000 0.022839 0.369336 -0.102285 -342.445975 789.658834 -0.000000 0.309950 0.273283 -0.346249
2.840000 23.894646 -70.430971 -0.000000 0.024097 0.374097 -0.102329 -338.456463 795.575778 -0.000000 0.309320 0.268714 -0.346190
2.845000 23.453196 -68.538140 -0.000000 0.025527 0.378760 -0.102328 -333.222762 800.770405 -0.000000 0.308497 0.264025 -0.346130
2.850000 23.060538 -66.689401 -0.000000 0.027115 0.383585 -0.102301 -326.641149 805.062330 -0.000000 0.307538 0.259442 -0.346182
2.855000 22.626724 -64.855177 -0.000000 0.028825 0.388229 -0.102291 -319.246925 808.142995 -0.000000 0.306482 0.254819 -0.346019
2.860000 21.960181 -63.049464 -0.000000 0.030626 0.392983 -0.102296 -310.595754 810.215552 -0.000000 0.305212 0.250234 -0.346098
2.865000 21.017593 -61.253484 -0.000000 0.032519 0.397476 -0.102236 -301.852751 810.942650 -0.000000 0.303898 0.245699 -0.346086
2.870000 19.649761 -59.490936 -0.000000 0.034606 0.401948 -0.102263 -292.188483 810.809511 -0.000000 0.302379 0.241170 -0.346028
2.875000 17.844507 -57.726155 -0.000000 0.036847 0.406502 -0.102234 -281.957883 809.860508 -0.000000 0.300759 0.236780 -0.345964
2.880000 15.564595 -55.910898 -0.000000 0.039487 0.410988 -0.102170 -270.945363 808.294463 -0.000000 0.299046 0.232389 -0.345980
2.885000 12.864231 -53.964682 -0.000000 0.042020 0.415187 -0.102184 -260.124150 805.784269 -0.000000 0.297251 0.227932 -0.345959
